<svg xmlns="http://www.w3.org/2000/svg" viewBox="0 0 64 48"><rect width="64" height="16" y="0" fill="#ff9933"/><rect width="64" height="16" y="16" fill="#ffffff"/><rect width="64" height="16" y="32" fill="#138808"/><circle cx="32" cy="24" r="5" fill="none" stroke="#000080" stroke-width="1.2"/><g stroke="#000080" stroke-width="0.6"><line x1="32" y1="24" x2="36.40" y2="24.00" /><line x1="32" y1="24" x2="36.25" y2="25.14" /><line x1="32" y1="24" x2="35.81" y2="26.20" /><line x1="32" y1="24" x2="35.11" y2="27.11" /><line x1="32" y1="24" x2="34.20" y2="27.81" /><line x1="32" y1="24" x2="33.14" y2="28.25" /><line x1="32" y1="24" x2="32.00" y2="28.40" /><line x1="32" y1="24" x2="30.86" y2="28.25" /><line x1="32" y1="24" x2="29.80" y2="27.81" /><line x1="32" y1="24" x2="28.89" y2="27.11" /><line x1="32" y1="24" x2="28.19" y2="26.20" /><line x1="32" y1="24" x2="27.75" y2="25.14" /><line x1="32" y1="24" x2="27.60" y2="24.00" /><line x1="32" y1="24" x2="27.75" y2="22.86" /><line x1="32" y1="24" x2="28.19" y2="21.80" /><line x1="32" y1="24" x2="28.89" y2="20.89" /><line x1="32" y1="24" x2="29.80" y2="20.19" /><line x1="32" y1="24" x2="30.86" y2="19.75" /><line x1="32" y1="24" x2="32.00" y2="19.60" /><line x1="32" y1="24" x2="33.14" y2="19.75" /><line x1="32" y1="24" x2="34.20" y2="20.19" /><line x1="32" y1="24" x2="35.11" y2="20.89" /><line x1="32" y1="24" x2="35.81" y2="21.80" /><line x1="32" y1="24" x2="36.25" y2="22.86" /></g></svg>