<svg xmlns="http://www.w3.org/2000/svg" viewBox="0 0 60 40" role="img" aria-labelledby="title"><title>Қазақша</title><rect width="60" height="40" fill="#00A3DD"/><circle cx="30" cy="19" r="7" fill="#FFD34D"/><g fill="#FFD34D"><rect x="29" y="7" width="2" height="6" rx="1"/><rect x="29" y="25" width="2" height="6" rx="1"/><rect x="18" y="18" width="6" height="2" rx="1"/><rect x="36" y="18" width="6" height="2" rx="1"/><rect x="21.8" y="10.8" width="2" height="5" transform="rotate(-45 22.8 13.3)" rx="1"/><rect x="36.2" y="24.2" width="2" height="5" transform="rotate(-45 37.2 26.7)" rx="1"/><rect x="36.2" y="10.8" width="2" height="5" transform="rotate(45 37.2 13.3)" rx="1"/><rect x="21.8" y="24.2" width="2" height="5" transform="rotate(45 22.8 26.7)" rx="1"/></g><path d="M7 6c2.2 1.1 3.7 3 4.5 5.2C10.2 13 8.8 14.8 7 16.2c1.5 1 2.8 2.5 3.8 4.1-1.8.7-3.1 2-3.8 3.7 2-.5 3.8-1.3 5.4-2.4 1.6 1.1 3.3 1.9 5.4 2.4-.7-1.7-2-3-3.8-3.7 1-1.6 2.3-3.1 3.8-4.1-1.8-1.4-3.2-3.2-4.5-5 1.3-1.8 2.7-3.6 4.5-5C15.2 6.5 13.4 7.3 11.8 8.4 10.2 7.3 8.4 6.5 7 6z" fill="#FFD34D" opacity=".95"/></svg>